<svg xmlns="http://www.w3.org/2000/svg" viewBox="0 0 560.34 169.49"><defs><style>.cls-1{fill:#052c38;}.cls-2{fill:#66c70e;}</style></defs><title>logoen</title><g id="Layer_2" data-name="Layer 2"><g id="Layer_1-2" data-name="Layer 1"><path class="cls-1" d="M64,105.58l41.13-22.44A30.45,30.45,0,0,0,121,56.44v-44L79.89,34.88A30.42,30.42,0,0,0,64,61.58Z"/><path class="cls-1" d="M57,93.14,15.85,70.7A30.42,30.42,0,0,1,0,44V0L41.12,22.44A30.42,30.42,0,0,1,57,49.14Z"/><path class="cls-1" d="M64,105.58l41.13-22.44A30.45,30.45,0,0,0,121,56.44v-44L79.89,34.88A30.42,30.42,0,0,0,64,61.58Z"/><path class="cls-1" d="M65.16,169.49l33.41-18.24a24.71,24.71,0,0,0,12.88-21.69V93.8L78,112a24.72,24.72,0,0,0-12.87,21.69Z"/><path class="cls-1" d="M55.85,153.14,22.44,134.9A24.71,24.71,0,0,1,9.56,113.21V77.45L43,95.69a24.7,24.7,0,0,1,12.87,21.69Z"/><path class="cls-2" d="M234.32,112.64H199.4L192.89,131H171.74l25.81-68.53a33.69,33.69,0,0,1,31.54-21.83h0L262.74,131H240.82ZM206,94.29h21.92L217.11,63.06Z"/><path class="cls-2" d="M267.46,131V57.84a19.12,19.12,0,0,1,19.11-19.12h.26V131Z"/><path class="cls-2" d="M355.4,67.65l12.36,37.6,7.55-26.82a14.78,14.78,0,0,1,14.23-10.78h7.79L377.7,131H358.46L344.69,90.08,331.18,131H311.55L297.7,86.86a14.79,14.79,0,0,1,14.11-19.21h0l10.58,37.47,7.86-23.58a20.32,20.32,0,0,1,19.27-13.89Z"/><path class="cls-2" d="M398.22,113.53a18.38,18.38,0,0,1,1.47-7.52,17,17,0,0,1,4-5.67,20.82,20.82,0,0,1,5.93-3.82A30.58,30.58,0,0,1,417,94.41l14.91-2.29a5.77,5.77,0,0,0,3.57-1.53,4.06,4.06,0,0,0,1-2.8,6.23,6.23,0,0,0-2.36-4.85c-1.57-1.35-3.89-2-6.94-2-3.4,0-6,1-7.84,2.87h0A14.68,14.68,0,0,1,405.73,88l-6.23-1.27a19.81,19.81,0,0,1,2-7.14,22.16,22.16,0,0,1,5.16-6.76,28.11,28.11,0,0,1,8.48-5.09,32.46,32.46,0,0,1,12.1-2,37.84,37.84,0,0,1,13,2A23.68,23.68,0,0,1,449,73.07a19.55,19.55,0,0,1,4.85,7.83,29.88,29.88,0,0,1,1.46,9.31v31a58.78,58.78,0,0,0,.32,6.5c.21,1.87.36,3,.45,3.31H438.63a16,16,0,0,1-.39-2.1,37.13,37.13,0,0,1-.25-5,18.55,18.55,0,0,1-7,6.5,22.51,22.51,0,0,1-10.83,2.42,25.27,25.27,0,0,1-9.31-1.6,20.78,20.78,0,0,1-6.88-4.26,18.29,18.29,0,0,1-5.74-13.39Zm26.64,5.23a16.21,16.21,0,0,0,4.27-.57,9,9,0,0,0,3.7-2,11.07,11.07,0,0,0,2.61-3.89,15.83,15.83,0,0,0,1-6.12v-2.8l-12,1.91a11.11,11.11,0,0,0-5.1,2.1,5.84,5.84,0,0,0-2,4.91,6.7,6.7,0,0,0,1.72,4.52Q420.79,118.76,424.86,118.76Z"/><path class="cls-2" d="M528.48,119.65c0,2.89.07,5.33.19,7.33s.24,3.33.32,4H510.38c-.08-.42-.19-1.23-.31-2.42a34,34,0,0,1-.19-3.69,15.54,15.54,0,0,1-6.7,5.41,24.06,24.06,0,0,1-10.26,2.11,31.06,31.06,0,0,1-12.49-2.49,30.28,30.28,0,0,1-9.94-6.88,31.31,31.31,0,0,1-6.56-10.52,38.75,38.75,0,0,1-.07-26.44,32.48,32.48,0,0,1,6.38-10.52,28.74,28.74,0,0,1,9.68-7,33.21,33.21,0,0,1,19.38-1.78,26.22,26.22,0,0,1,5,1.66,12.42,12.42,0,0,1,3.25,2.1,14.82,14.82,0,0,1,1.84,2V57.84a19.12,19.12,0,0,1,19.12-19.12h0ZM481.07,99.26a18.71,18.71,0,0,0,1.15,6.88,14,14,0,0,0,3.12,4.91,13.12,13.12,0,0,0,4.59,3,14.88,14.88,0,0,0,10.83,0,13.21,13.21,0,0,0,4.59-3,14,14,0,0,0,3.12-4.91,21.16,21.16,0,0,0,0-13.76,14,14,0,0,0-3.12-4.91,12.39,12.39,0,0,0-4.59-2.93,15.75,15.75,0,0,0-10.83,0,12.31,12.31,0,0,0-4.59,2.93,14,14,0,0,0-3.12,4.91A18.71,18.71,0,0,0,481.07,99.26Z"/><path class="cls-2" d="M538.58,131V87A19.37,19.37,0,0,1,558,67.65h0V131Z"/><path class="cls-1" d="M551.43,38.72a18.87,18.87,0,0,0-5.06.68A10.38,10.38,0,0,0,542,41.81a13,13,0,0,0-3.1,4.61,18.89,18.89,0,0,0-1.21,7.25V57l14.2-2.27a13.07,13.07,0,0,0,6-2.49c1.61-1.26,2.42-3.19,2.42-5.81a7.91,7.91,0,0,0-2-5.36Q556.26,38.72,551.43,38.72Z"/></g></g></svg>