<svg xmlns="http://www.w3.org/2000/svg" viewBox="0 0 565 170.07"><defs><style>.cls-1{fill:#66c70e;}.cls-2{fill:#052c38;}</style></defs><title>logoar</title><g id="Layer_2" data-name="Layer 2"><g id="Layer_1-2" data-name="Layer 1"><path class="cls-1" d="M111.16,47c-8.38,0-14.09,0-19.48,0a45.07,45.07,0,0,0-16.37,2.56,36,36,0,0,0-12.74,7.39,34.15,34.15,0,0,0-8.22,12,42.59,42.59,0,0,0-3,16.08c0,7.85,1.66,14.76,5.12,20.59H34.35a13.82,13.82,0,0,1-10.24-3.87C21.55,99.11,20.3,95,20.3,89.23V55.77h0A20.3,20.3,0,0,0,0,76.08V89.23c0,11.07,3,19.47,9.05,25.18s14.41,8.64,25.3,8.64H112.1V105.54H91.68A21.22,21.22,0,0,1,83.52,104a18.52,18.52,0,0,1-6.25-4.23,19,19,0,0,1-3.93-6.49A23.38,23.38,0,0,1,72,85a23.62,23.62,0,0,1,1.37-8.46,17.52,17.52,0,0,1,1-2.25,18.94,18.94,0,0,1,3-4.18A18,18,0,0,1,83.52,66c8-3.24,13.75-1.39,18.92-3.77C105.68,60.69,108.67,57.15,111.16,47Z"/><path class="cls-1" d="M121.73,123.05V105.46h27.06a22.47,22.47,0,0,0,8.13-1.42,16.73,16.73,0,0,0,6.23-4.1,18.75,18.75,0,0,0,3.92-6.44A24.6,24.6,0,0,0,168.46,85a24.06,24.06,0,0,0-1.39-8.33,19.17,19.17,0,0,0-3.92-6.49,17.32,17.32,0,0,0-6.23-4.2,21.66,21.66,0,0,0-8.13-1.49h0A13.52,13.52,0,0,1,135.27,51V47h13.45a50.64,50.64,0,0,1,16.39,2.53,36.06,36.06,0,0,1,12.71,7.34,32.78,32.78,0,0,1,8.26,11.93A42.06,42.06,0,0,1,189,85a41.34,41.34,0,0,1-3,16.1,33.55,33.55,0,0,1-8.26,11.93,36,36,0,0,1-12.71,7.44,49.83,49.83,0,0,1-16.39,2.56Z"/><path class="cls-1" d="M198.66,48.57V123h19.17V29.4h0A19.17,19.17,0,0,0,198.66,48.57Z"/><path class="cls-1" d="M309.22,120.85a37.82,37.82,0,0,1-2.14,9.9,28.81,28.81,0,0,1-6.55,10.47,30.18,30.18,0,0,1-10.82,6.91,41.36,41.36,0,0,1-14.53,2.49V132.74q6.48,0,10.11-3.92,3.21-3.41,3.56-9.68-1.64.7-3.42,1.35a53.46,53.46,0,0,1-32.69,0A36.47,36.47,0,0,1,240,113.08a32.53,32.53,0,0,1-8.33-11.89A42.45,42.45,0,0,1,228.74,85a41.86,41.86,0,0,1,2.92-16A33.39,33.39,0,0,1,240,57a35.86,35.86,0,0,1,12.75-7.48A49.81,49.81,0,0,1,269.12,47a50.91,50.91,0,0,1,16.31,2.5A35.86,35.86,0,0,1,298.18,57a33.21,33.21,0,0,1,8.2,11.89,41,41,0,0,1,3,16.1v5.34q0,7.49,3.64,11.33t10,3.91a8.76,8.76,0,1,1,0,17.52h-.21A41,41,0,0,1,309.22,120.85Zm-32-16.89a17,17,0,0,0,6.23-4.2,18.72,18.72,0,0,0,3.92-6.48A23.87,23.87,0,0,0,288.78,85a24.33,24.33,0,0,0-1.39-8.48,18.14,18.14,0,0,0-3.92-6.41A17.25,17.25,0,0,0,277.24,66a22,22,0,0,0-8.12-1.46A21.33,21.33,0,0,0,261,66a17.71,17.71,0,0,0-6.27,4.24,20,20,0,0,0-4.06,6.48A22.56,22.56,0,0,0,249.25,85a23,23,0,0,0,1.46,8.33,19,19,0,0,0,4.1,6.48,18.16,18.16,0,0,0,6.26,4.2,20.77,20.77,0,0,0,8,1.5A21.6,21.6,0,0,0,277.24,104Z"/><path class="cls-1" d="M323,105.53q6.48,0,10.12-3.91t3.63-11.4V49.91a20.44,20.44,0,0,1,20.44-20.44h0V89.93A38.1,38.1,0,0,1,355,103.15a29.09,29.09,0,0,1-6.59,10.5,29.85,29.85,0,0,1-10.72,6.88A41.55,41.55,0,0,1,323,123.05Z"/><path class="cls-1" d="M366.84,48.57V123H386V29.4h0A19.17,19.17,0,0,0,366.84,48.57Z"/><path class="cls-2" d="M507.8,105.9l41.29-22.53A30.55,30.55,0,0,0,565,56.56V12.39L523.71,34.92a30.53,30.53,0,0,0-15.91,26.8Z"/><path class="cls-2" d="M500.51,93.32,459.15,70.93a30.53,30.53,0,0,1-16-26.75L443,0l41.36,22.39a30.53,30.53,0,0,1,16,26.75Z"/><path class="cls-2" d="M507.46,105.9l41.28-22.53a30.53,30.53,0,0,0,15.91-26.81V12.39L523.37,34.92a30.53,30.53,0,0,0-15.91,26.8Z"/><path class="cls-2" d="M508.58,170.07l33.54-18.31A24.81,24.81,0,0,0,555.05,130V94.08L521.5,112.39a24.8,24.8,0,0,0-12.92,21.78Z"/><path class="cls-2" d="M499.23,153.65l-33.54-18.31a24.81,24.81,0,0,1-12.93-21.78V77.66L486.31,96a24.81,24.81,0,0,1,12.92,21.78Z"/><path class="cls-2" d="M34.54,150.76a8.56,8.56,0,0,0,8.65-8.83,8,8,0,0,0-2.62-6.41,8.93,8.93,0,0,0-6-2.28,8.53,8.53,0,0,0-5.92,2.21A8.4,8.4,0,0,0,26,141.93a8.65,8.65,0,0,0,2.61,6.55A8.36,8.36,0,0,0,34.54,150.76Z"/><path class="cls-2" d="M54.22,150.76a8.56,8.56,0,0,0,8.65-8.83,8,8,0,0,0-2.62-6.41,8.93,8.93,0,0,0-6-2.28,8.48,8.48,0,0,0-5.91,2.21,8.28,8.28,0,0,0-2.68,6.48,8.52,8.52,0,0,0,2.68,6.55A8.19,8.19,0,0,0,54.22,150.76Z"/></g></g></svg>