<svg xmlns="http://www.w3.org/2000/svg" viewBox="0 0 110.75 33.5"><defs><style>.cls-1{fill:#66c70e;}</style></defs><title>logo-green_1</title><g id="Layer_2" data-name="Layer 2"><g id="Layer_1-2" data-name="Layer 1"><path class="cls-1" d="M12.66,20.87l8.13-4.44a6,6,0,0,0,3.13-5.27V2.46L15.79,6.89a6,6,0,0,0-3.13,5.28Z"/><path class="cls-1" d="M11.26,18.41,3.13,14A6,6,0,0,1,0,8.7V0L8.13,4.44a6,6,0,0,1,3.13,5.27Z"/><path class="cls-1" d="M12.66,20.87l8.13-4.44a6,6,0,0,0,3.13-5.27V2.46L15.79,6.89a6,6,0,0,0-3.13,5.28Z"/><path class="cls-1" d="M12.88,33.5l6.6-3.6A4.89,4.89,0,0,0,22,25.61V18.54l-6.61,3.61a4.87,4.87,0,0,0-2.54,4.28Z"/><path class="cls-1" d="M11,30.27l-6.6-3.61a4.88,4.88,0,0,1-2.55-4.28V15.31l6.6,3.6A4.89,4.89,0,0,1,11,23.2Z"/><path class="cls-1" d="M46.31,22.26h-6.9l-1.28,3.63H33.94l5.11-13.55A6.66,6.66,0,0,1,45.28,8h0l6.65,17.86H47.6Zm-5.59-3.62h4.33l-2.14-6.18Z"/><path class="cls-1" d="M52.86,25.89V11.43a3.78,3.78,0,0,1,3.78-3.78h0V25.89Z"/><path class="cls-1" d="M70.25,13.37l2.44,7.43,1.49-5.3A2.93,2.93,0,0,1,77,13.37h1.54L74.66,25.89H70.85L68.13,17.8l-2.67,8.09H61.58l-2.74-8.72a2.93,2.93,0,0,1,2.79-3.8h0l2.09,7.41,1.56-4.66a4,4,0,0,1,3.81-2.75Z"/><path class="cls-1" d="M78.71,22.44A3.74,3.74,0,0,1,79,21a3.45,3.45,0,0,1,.79-1.12A4.09,4.09,0,0,1,81,19.08a5.88,5.88,0,0,1,1.44-.42l3-.45a1.18,1.18,0,0,0,.71-.3.85.85,0,0,0,.2-.56,1.24,1.24,0,0,0-.47-1,2.09,2.09,0,0,0-1.37-.4,2,2,0,0,0-1.55.57h0a2.92,2.92,0,0,1-2.69.84L79,17.15a4,4,0,0,1,.41-1.41,4.27,4.27,0,0,1,1-1.34,5.53,5.53,0,0,1,1.67-1A6.39,6.39,0,0,1,84.45,13a7.43,7.43,0,0,1,2.57.39,4.7,4.7,0,0,1,1.73,1.06,3.92,3.92,0,0,1,1,1.55A6,6,0,0,1,90,17.83V24a12.16,12.16,0,0,0,.06,1.29,5.94,5.94,0,0,0,.09.65H86.7a4.08,4.08,0,0,1-.08-.41,8.07,8.07,0,0,1-.05-1,3.72,3.72,0,0,1-1.38,1.29,4.58,4.58,0,0,1-2.15.47,5.07,5.07,0,0,1-1.84-.31,4.23,4.23,0,0,1-1.36-.84A3.67,3.67,0,0,1,79,23.88,3.74,3.74,0,0,1,78.71,22.44Zm5.27,1a3,3,0,0,0,.84-.11,1.8,1.8,0,0,0,.73-.4,2.32,2.32,0,0,0,.52-.77,3.22,3.22,0,0,0,.2-1.21v-.56l-2.37.38a2.25,2.25,0,0,0-1,.42,1.15,1.15,0,0,0-.4,1,1.31,1.31,0,0,0,.34.89A1.46,1.46,0,0,0,84,23.47Z"/><path class="cls-1" d="M104.46,23.65c0,.57,0,1.05,0,1.45s0,.66.06.79h-3.68a3.7,3.7,0,0,1-.06-.48,5.74,5.74,0,0,1,0-.73,3,3,0,0,1-1.32,1.07,4.76,4.76,0,0,1-2,.42A6.12,6.12,0,0,1,95,25.68a5.9,5.9,0,0,1-2-1.36,6.16,6.16,0,0,1-1.3-2.08,7.66,7.66,0,0,1,0-5.23,6.69,6.69,0,0,1,1.26-2.08,5.79,5.79,0,0,1,4.36-1.86,6.21,6.21,0,0,1,1.39.14,5.64,5.64,0,0,1,1,.32,2.53,2.53,0,0,1,.64.42,4,4,0,0,1,.37.4V11.43a3.78,3.78,0,0,1,3.78-3.78h0Zm-9.37-4A3.77,3.77,0,0,0,95.31,21a2.74,2.74,0,0,0,.62,1,2.51,2.51,0,0,0,.91.59,2.79,2.79,0,0,0,1.07.2,2.82,2.82,0,0,0,1.07-.2,2.69,2.69,0,0,0,.91-.59,2.72,2.72,0,0,0,.61-1,3.76,3.76,0,0,0,.23-1.36,3.72,3.72,0,0,0-.23-1.36,2.72,2.72,0,0,0-.61-1,2.66,2.66,0,0,0-.91-.58,3,3,0,0,0-1.07-.19,3,3,0,0,0-1.07.19,2.49,2.49,0,0,0-.91.58,2.74,2.74,0,0,0-.62,1A3.73,3.73,0,0,0,95.09,19.62Z"/><path class="cls-1" d="M106.45,25.89V17.2a3.84,3.84,0,0,1,3.83-3.83h0V25.89Z"/><path class="cls-1" d="M109,7.65a3.77,3.77,0,0,0-1,.14,2.13,2.13,0,0,0-.86.47,2.51,2.51,0,0,0-.61.91,3.73,3.73,0,0,0-.24,1.44v.65l2.8-.44a2.61,2.61,0,0,0,1.2-.5,1.37,1.37,0,0,0,.47-1.15,1.53,1.53,0,0,0-.4-1.05A1.72,1.72,0,0,0,109,7.65Z"/></g></g></svg>